<?xml version="1.0" encoding="utf-8" standalone="no"?>
<!DOCTYPE svg PUBLIC "-//W3C//DTD SVG 1.1//EN"
  "http://www.w3.org/Graphics/SVG/1.1/DTD/svg11.dtd">
<svg xmlns:xlink="http://www.w3.org/1999/xlink" width="455.39875pt" height="348.965156pt" viewBox="0 0 455.39875 348.965156" xmlns="http://www.w3.org/2000/svg" version="1.1">
 <metadata>
  <rdf:RDF xmlns:dc="http://purl.org/dc/elements/1.1/" xmlns:cc="http://creativecommons.org/ns#" xmlns:rdf="http://www.w3.org/1999/02/22-rdf-syntax-ns#">
   <cc:Work>
    <dc:type rdf:resource="http://purl.org/dc/dcmitype/StillImage"/>
    <dc:date>2023-04-12T02:15:43.559594</dc:date>
    <dc:format>image/svg+xml</dc:format>
    <dc:creator>
     <cc:Agent>
      <dc:title>Matplotlib v3.5.2, https://matplotlib.org/</dc:title>
     </cc:Agent>
    </dc:creator>
   </cc:Work>
  </rdf:RDF>
 </metadata>
 <defs>
  <style type="text/css">*{stroke-linejoin: round; stroke-linecap: butt}</style>
 </defs>
 <g id="figure_1">
  <g id="patch_1">
   <path d="M 0 348.965156 
L 455.39875 348.965156 
L 455.39875 0 
L 0 0 
z
" style="fill: #ffffff"/>
  </g>
  <g id="axes_1">
   <g id="patch_2">
    <path d="M 42.28875 311.56 
L 336.74975 311.56 
L 336.74975 7.2 
L 42.28875 7.2 
z
" style="fill: #ffffff"/>
   </g>
   <g id="matplotlib.axis_1">
    <g id="xtick_1">
     <g id="line2d_1">
      <path d="M 53.564292 311.56 
L 53.564292 7.2 
" clip-path="url(#pafd19c2306)" style="fill: none; stroke: #cccccc; stroke-linecap: round"/>
     </g>
     <g id="line2d_2"/>
     <g id="text_1">
      <!-- −0.2 -->
      <g style="fill: #262626" transform="translate(43.69398 325.717812)scale(0.1 -0.1)">
       <defs>
        <path id="ArialMT-2212" d="M 3381 1997 
L 356 1997 
L 356 2522 
L 3381 2522 
L 3381 1997 
z
" transform="scale(0.015625)"/>
        <path id="ArialMT-30" d="M 266 2259 
Q 266 3072 433 3567 
Q 600 4063 929 4331 
Q 1259 4600 1759 4600 
Q 2128 4600 2406 4451 
Q 2684 4303 2865 4023 
Q 3047 3744 3150 3342 
Q 3253 2941 3253 2259 
Q 3253 1453 3087 958 
Q 2922 463 2592 192 
Q 2263 -78 1759 -78 
Q 1097 -78 719 397 
Q 266 969 266 2259 
z
M 844 2259 
Q 844 1131 1108 757 
Q 1372 384 1759 384 
Q 2147 384 2411 759 
Q 2675 1134 2675 2259 
Q 2675 3391 2411 3762 
Q 2147 4134 1753 4134 
Q 1366 4134 1134 3806 
Q 844 3388 844 2259 
z
" transform="scale(0.015625)"/>
        <path id="ArialMT-2e" d="M 581 0 
L 581 641 
L 1222 641 
L 1222 0 
L 581 0 
z
" transform="scale(0.015625)"/>
        <path id="ArialMT-32" d="M 3222 541 
L 3222 0 
L 194 0 
Q 188 203 259 391 
Q 375 700 629 1000 
Q 884 1300 1366 1694 
Q 2113 2306 2375 2664 
Q 2638 3022 2638 3341 
Q 2638 3675 2398 3904 
Q 2159 4134 1775 4134 
Q 1369 4134 1125 3890 
Q 881 3647 878 3216 
L 300 3275 
Q 359 3922 746 4261 
Q 1134 4600 1788 4600 
Q 2447 4600 2831 4234 
Q 3216 3869 3216 3328 
Q 3216 3053 3103 2787 
Q 2991 2522 2730 2228 
Q 2469 1934 1863 1422 
Q 1356 997 1212 845 
Q 1069 694 975 541 
L 3222 541 
z
" transform="scale(0.015625)"/>
       </defs>
       <use xlink:href="#ArialMT-2212"/>
       <use xlink:href="#ArialMT-30" x="58.398438"/>
       <use xlink:href="#ArialMT-2e" x="114.013672"/>
       <use xlink:href="#ArialMT-32" x="141.796875"/>
      </g>
     </g>
    </g>
    <g id="xtick_2">
     <g id="line2d_3">
      <path d="M 92.404935 311.56 
L 92.404935 7.2 
" clip-path="url(#pafd19c2306)" style="fill: none; stroke: #cccccc; stroke-linecap: round"/>
     </g>
     <g id="line2d_4"/>
     <g id="text_2">
      <!-- 0.0 -->
      <g style="fill: #262626" transform="translate(85.454935 325.717812)scale(0.1 -0.1)">
       <use xlink:href="#ArialMT-30"/>
       <use xlink:href="#ArialMT-2e" x="55.615234"/>
       <use xlink:href="#ArialMT-30" x="83.398438"/>
      </g>
     </g>
    </g>
    <g id="xtick_3">
     <g id="line2d_5">
      <path d="M 131.245577 311.56 
L 131.245577 7.2 
" clip-path="url(#pafd19c2306)" style="fill: none; stroke: #cccccc; stroke-linecap: round"/>
     </g>
     <g id="line2d_6"/>
     <g id="text_3">
      <!-- 0.2 -->
      <g style="fill: #262626" transform="translate(124.295577 325.717812)scale(0.1 -0.1)">
       <use xlink:href="#ArialMT-30"/>
       <use xlink:href="#ArialMT-2e" x="55.615234"/>
       <use xlink:href="#ArialMT-32" x="83.398438"/>
      </g>
     </g>
    </g>
    <g id="xtick_4">
     <g id="line2d_7">
      <path d="M 170.08622 311.56 
L 170.08622 7.2 
" clip-path="url(#pafd19c2306)" style="fill: none; stroke: #cccccc; stroke-linecap: round"/>
     </g>
     <g id="line2d_8"/>
     <g id="text_4">
      <!-- 0.4 -->
      <g style="fill: #262626" transform="translate(163.13622 325.717812)scale(0.1 -0.1)">
       <defs>
        <path id="ArialMT-34" d="M 2069 0 
L 2069 1097 
L 81 1097 
L 81 1613 
L 2172 4581 
L 2631 4581 
L 2631 1613 
L 3250 1613 
L 3250 1097 
L 2631 1097 
L 2631 0 
L 2069 0 
z
M 2069 1613 
L 2069 3678 
L 634 1613 
L 2069 1613 
z
" transform="scale(0.015625)"/>
       </defs>
       <use xlink:href="#ArialMT-30"/>
       <use xlink:href="#ArialMT-2e" x="55.615234"/>
       <use xlink:href="#ArialMT-34" x="83.398438"/>
      </g>
     </g>
    </g>
    <g id="xtick_5">
     <g id="line2d_9">
      <path d="M 208.926862 311.56 
L 208.926862 7.2 
" clip-path="url(#pafd19c2306)" style="fill: none; stroke: #cccccc; stroke-linecap: round"/>
     </g>
     <g id="line2d_10"/>
     <g id="text_5">
      <!-- 0.6 -->
      <g style="fill: #262626" transform="translate(201.976862 325.717812)scale(0.1 -0.1)">
       <defs>
        <path id="ArialMT-36" d="M 3184 3459 
L 2625 3416 
Q 2550 3747 2413 3897 
Q 2184 4138 1850 4138 
Q 1581 4138 1378 3988 
Q 1113 3794 959 3422 
Q 806 3050 800 2363 
Q 1003 2672 1297 2822 
Q 1591 2972 1913 2972 
Q 2475 2972 2870 2558 
Q 3266 2144 3266 1488 
Q 3266 1056 3080 686 
Q 2894 316 2569 119 
Q 2244 -78 1831 -78 
Q 1128 -78 684 439 
Q 241 956 241 2144 
Q 241 3472 731 4075 
Q 1159 4600 1884 4600 
Q 2425 4600 2770 4297 
Q 3116 3994 3184 3459 
z
M 888 1484 
Q 888 1194 1011 928 
Q 1134 663 1356 523 
Q 1578 384 1822 384 
Q 2178 384 2434 671 
Q 2691 959 2691 1453 
Q 2691 1928 2437 2201 
Q 2184 2475 1800 2475 
Q 1419 2475 1153 2201 
Q 888 1928 888 1484 
z
" transform="scale(0.015625)"/>
       </defs>
       <use xlink:href="#ArialMT-30"/>
       <use xlink:href="#ArialMT-2e" x="55.615234"/>
       <use xlink:href="#ArialMT-36" x="83.398438"/>
      </g>
     </g>
    </g>
    <g id="xtick_6">
     <g id="line2d_11">
      <path d="M 247.767505 311.56 
L 247.767505 7.2 
" clip-path="url(#pafd19c2306)" style="fill: none; stroke: #cccccc; stroke-linecap: round"/>
     </g>
     <g id="line2d_12"/>
     <g id="text_6">
      <!-- 0.8 -->
      <g style="fill: #262626" transform="translate(240.817505 325.717812)scale(0.1 -0.1)">
       <defs>
        <path id="ArialMT-38" d="M 1131 2484 
Q 781 2613 612 2850 
Q 444 3088 444 3419 
Q 444 3919 803 4259 
Q 1163 4600 1759 4600 
Q 2359 4600 2725 4251 
Q 3091 3903 3091 3403 
Q 3091 3084 2923 2848 
Q 2756 2613 2416 2484 
Q 2838 2347 3058 2040 
Q 3278 1734 3278 1309 
Q 3278 722 2862 322 
Q 2447 -78 1769 -78 
Q 1091 -78 675 323 
Q 259 725 259 1325 
Q 259 1772 486 2073 
Q 713 2375 1131 2484 
z
M 1019 3438 
Q 1019 3113 1228 2906 
Q 1438 2700 1772 2700 
Q 2097 2700 2305 2904 
Q 2513 3109 2513 3406 
Q 2513 3716 2298 3927 
Q 2084 4138 1766 4138 
Q 1444 4138 1231 3931 
Q 1019 3725 1019 3438 
z
M 838 1322 
Q 838 1081 952 856 
Q 1066 631 1291 507 
Q 1516 384 1775 384 
Q 2178 384 2440 643 
Q 2703 903 2703 1303 
Q 2703 1709 2433 1975 
Q 2163 2241 1756 2241 
Q 1359 2241 1098 1978 
Q 838 1716 838 1322 
z
" transform="scale(0.015625)"/>
       </defs>
       <use xlink:href="#ArialMT-30"/>
       <use xlink:href="#ArialMT-2e" x="55.615234"/>
       <use xlink:href="#ArialMT-38" x="83.398438"/>
      </g>
     </g>
    </g>
    <g id="xtick_7">
     <g id="line2d_13">
      <path d="M 286.608147 311.56 
L 286.608147 7.2 
" clip-path="url(#pafd19c2306)" style="fill: none; stroke: #cccccc; stroke-linecap: round"/>
     </g>
     <g id="line2d_14"/>
     <g id="text_7">
      <!-- 1.0 -->
      <g style="fill: #262626" transform="translate(279.658147 325.717812)scale(0.1 -0.1)">
       <defs>
        <path id="ArialMT-31" d="M 2384 0 
L 1822 0 
L 1822 3584 
Q 1619 3391 1289 3197 
Q 959 3003 697 2906 
L 697 3450 
Q 1169 3672 1522 3987 
Q 1875 4303 2022 4600 
L 2384 4600 
L 2384 0 
z
" transform="scale(0.015625)"/>
       </defs>
       <use xlink:href="#ArialMT-31"/>
       <use xlink:href="#ArialMT-2e" x="55.615234"/>
       <use xlink:href="#ArialMT-30" x="83.398438"/>
      </g>
     </g>
    </g>
    <g id="xtick_8">
     <g id="line2d_15">
      <path d="M 325.44879 311.56 
L 325.44879 7.2 
" clip-path="url(#pafd19c2306)" style="fill: none; stroke: #cccccc; stroke-linecap: round"/>
     </g>
     <g id="line2d_16"/>
     <g id="text_8">
      <!-- 1.2 -->
      <g style="fill: #262626" transform="translate(318.49879 325.717812)scale(0.1 -0.1)">
       <use xlink:href="#ArialMT-31"/>
       <use xlink:href="#ArialMT-2e" x="55.615234"/>
       <use xlink:href="#ArialMT-32" x="83.398438"/>
      </g>
     </g>
    </g>
    <g id="text_9">
     <!-- 0 -->
     <g style="fill: #262626" transform="translate(186.460734 339.578906)scale(0.11 -0.11)">
      <use xlink:href="#ArialMT-30"/>
     </g>
    </g>
   </g>
   <g id="matplotlib.axis_2">
    <g id="ytick_1">
     <g id="line2d_17">
      <path d="M 42.28875 311.56 
L 336.74975 311.56 
" clip-path="url(#pafd19c2306)" style="fill: none; stroke: #cccccc; stroke-linecap: round"/>
     </g>
     <g id="line2d_18"/>
     <g id="text_10">
      <!-- 0.0 -->
      <g style="fill: #262626" transform="translate(21.38875 315.138906)scale(0.1 -0.1)">
       <use xlink:href="#ArialMT-30"/>
       <use xlink:href="#ArialMT-2e" x="55.615234"/>
       <use xlink:href="#ArialMT-30" x="83.398438"/>
      </g>
     </g>
    </g>
    <g id="ytick_2">
     <g id="line2d_19">
      <path d="M 42.28875 256.10221 
L 336.74975 256.10221 
" clip-path="url(#pafd19c2306)" style="fill: none; stroke: #cccccc; stroke-linecap: round"/>
     </g>
     <g id="line2d_20"/>
     <g id="text_11">
      <!-- 0.2 -->
      <g style="fill: #262626" transform="translate(21.38875 259.681117)scale(0.1 -0.1)">
       <use xlink:href="#ArialMT-30"/>
       <use xlink:href="#ArialMT-2e" x="55.615234"/>
       <use xlink:href="#ArialMT-32" x="83.398438"/>
      </g>
     </g>
    </g>
    <g id="ytick_3">
     <g id="line2d_21">
      <path d="M 42.28875 200.644421 
L 336.74975 200.644421 
" clip-path="url(#pafd19c2306)" style="fill: none; stroke: #cccccc; stroke-linecap: round"/>
     </g>
     <g id="line2d_22"/>
     <g id="text_12">
      <!-- 0.4 -->
      <g style="fill: #262626" transform="translate(21.38875 204.223327)scale(0.1 -0.1)">
       <use xlink:href="#ArialMT-30"/>
       <use xlink:href="#ArialMT-2e" x="55.615234"/>
       <use xlink:href="#ArialMT-34" x="83.398438"/>
      </g>
     </g>
    </g>
    <g id="ytick_4">
     <g id="line2d_23">
      <path d="M 42.28875 145.186631 
L 336.74975 145.186631 
" clip-path="url(#pafd19c2306)" style="fill: none; stroke: #cccccc; stroke-linecap: round"/>
     </g>
     <g id="line2d_24"/>
     <g id="text_13">
      <!-- 0.6 -->
      <g style="fill: #262626" transform="translate(21.38875 148.765537)scale(0.1 -0.1)">
       <use xlink:href="#ArialMT-30"/>
       <use xlink:href="#ArialMT-2e" x="55.615234"/>
       <use xlink:href="#ArialMT-36" x="83.398438"/>
      </g>
     </g>
    </g>
    <g id="ytick_5">
     <g id="line2d_25">
      <path d="M 42.28875 89.728841 
L 336.74975 89.728841 
" clip-path="url(#pafd19c2306)" style="fill: none; stroke: #cccccc; stroke-linecap: round"/>
     </g>
     <g id="line2d_26"/>
     <g id="text_14">
      <!-- 0.8 -->
      <g style="fill: #262626" transform="translate(21.38875 93.307748)scale(0.1 -0.1)">
       <use xlink:href="#ArialMT-30"/>
       <use xlink:href="#ArialMT-2e" x="55.615234"/>
       <use xlink:href="#ArialMT-38" x="83.398438"/>
      </g>
     </g>
    </g>
    <g id="ytick_6">
     <g id="line2d_27">
      <path d="M 42.28875 34.271052 
L 336.74975 34.271052 
" clip-path="url(#pafd19c2306)" style="fill: none; stroke: #cccccc; stroke-linecap: round"/>
     </g>
     <g id="line2d_28"/>
     <g id="text_15">
      <!-- 1.0 -->
      <g style="fill: #262626" transform="translate(21.38875 37.849958)scale(0.1 -0.1)">
       <use xlink:href="#ArialMT-31"/>
       <use xlink:href="#ArialMT-2e" x="55.615234"/>
       <use xlink:href="#ArialMT-30" x="83.398438"/>
      </g>
     </g>
    </g>
    <g id="text_16">
     <!-- Density -->
     <g style="fill: #262626" transform="translate(15.073594 177.719062)rotate(-90)scale(0.11 -0.11)">
      <defs>
       <path id="ArialMT-44" d="M 494 0 
L 494 4581 
L 2072 4581 
Q 2606 4581 2888 4516 
Q 3281 4425 3559 4188 
Q 3922 3881 4101 3404 
Q 4281 2928 4281 2316 
Q 4281 1794 4159 1391 
Q 4038 988 3847 723 
Q 3656 459 3429 307 
Q 3203 156 2883 78 
Q 2563 0 2147 0 
L 494 0 
z
M 1100 541 
L 2078 541 
Q 2531 541 2789 625 
Q 3047 709 3200 863 
Q 3416 1078 3536 1442 
Q 3656 1806 3656 2325 
Q 3656 3044 3420 3430 
Q 3184 3816 2847 3947 
Q 2603 4041 2063 4041 
L 1100 4041 
L 1100 541 
z
" transform="scale(0.015625)"/>
       <path id="ArialMT-65" d="M 2694 1069 
L 3275 997 
Q 3138 488 2766 206 
Q 2394 -75 1816 -75 
Q 1088 -75 661 373 
Q 234 822 234 1631 
Q 234 2469 665 2931 
Q 1097 3394 1784 3394 
Q 2450 3394 2872 2941 
Q 3294 2488 3294 1666 
Q 3294 1616 3291 1516 
L 816 1516 
Q 847 969 1125 678 
Q 1403 388 1819 388 
Q 2128 388 2347 550 
Q 2566 713 2694 1069 
z
M 847 1978 
L 2700 1978 
Q 2663 2397 2488 2606 
Q 2219 2931 1791 2931 
Q 1403 2931 1139 2672 
Q 875 2413 847 1978 
z
" transform="scale(0.015625)"/>
       <path id="ArialMT-6e" d="M 422 0 
L 422 3319 
L 928 3319 
L 928 2847 
Q 1294 3394 1984 3394 
Q 2284 3394 2536 3286 
Q 2788 3178 2913 3003 
Q 3038 2828 3088 2588 
Q 3119 2431 3119 2041 
L 3119 0 
L 2556 0 
L 2556 2019 
Q 2556 2363 2490 2533 
Q 2425 2703 2258 2804 
Q 2091 2906 1866 2906 
Q 1506 2906 1245 2678 
Q 984 2450 984 1813 
L 984 0 
L 422 0 
z
" transform="scale(0.015625)"/>
       <path id="ArialMT-73" d="M 197 991 
L 753 1078 
Q 800 744 1014 566 
Q 1228 388 1613 388 
Q 2000 388 2187 545 
Q 2375 703 2375 916 
Q 2375 1106 2209 1216 
Q 2094 1291 1634 1406 
Q 1016 1563 777 1677 
Q 538 1791 414 1992 
Q 291 2194 291 2438 
Q 291 2659 392 2848 
Q 494 3038 669 3163 
Q 800 3259 1026 3326 
Q 1253 3394 1513 3394 
Q 1903 3394 2198 3281 
Q 2494 3169 2634 2976 
Q 2775 2784 2828 2463 
L 2278 2388 
Q 2241 2644 2061 2787 
Q 1881 2931 1553 2931 
Q 1166 2931 1000 2803 
Q 834 2675 834 2503 
Q 834 2394 903 2306 
Q 972 2216 1119 2156 
Q 1203 2125 1616 2013 
Q 2213 1853 2448 1751 
Q 2684 1650 2818 1456 
Q 2953 1263 2953 975 
Q 2953 694 2789 445 
Q 2625 197 2315 61 
Q 2006 -75 1616 -75 
Q 969 -75 630 194 
Q 291 463 197 991 
z
" transform="scale(0.015625)"/>
       <path id="ArialMT-69" d="M 425 3934 
L 425 4581 
L 988 4581 
L 988 3934 
L 425 3934 
z
M 425 0 
L 425 3319 
L 988 3319 
L 988 0 
L 425 0 
z
" transform="scale(0.015625)"/>
       <path id="ArialMT-74" d="M 1650 503 
L 1731 6 
Q 1494 -44 1306 -44 
Q 1000 -44 831 53 
Q 663 150 594 308 
Q 525 466 525 972 
L 525 2881 
L 113 2881 
L 113 3319 
L 525 3319 
L 525 4141 
L 1084 4478 
L 1084 3319 
L 1650 3319 
L 1650 2881 
L 1084 2881 
L 1084 941 
Q 1084 700 1114 631 
Q 1144 563 1211 522 
Q 1278 481 1403 481 
Q 1497 481 1650 503 
z
" transform="scale(0.015625)"/>
       <path id="ArialMT-79" d="M 397 -1278 
L 334 -750 
Q 519 -800 656 -800 
Q 844 -800 956 -737 
Q 1069 -675 1141 -563 
Q 1194 -478 1313 -144 
Q 1328 -97 1363 -6 
L 103 3319 
L 709 3319 
L 1400 1397 
Q 1534 1031 1641 628 
Q 1738 1016 1872 1384 
L 2581 3319 
L 3144 3319 
L 1881 -56 
Q 1678 -603 1566 -809 
Q 1416 -1088 1222 -1217 
Q 1028 -1347 759 -1347 
Q 597 -1347 397 -1278 
z
" transform="scale(0.015625)"/>
      </defs>
      <use xlink:href="#ArialMT-44"/>
      <use xlink:href="#ArialMT-65" x="72.216797"/>
      <use xlink:href="#ArialMT-6e" x="127.832031"/>
      <use xlink:href="#ArialMT-73" x="183.447266"/>
      <use xlink:href="#ArialMT-69" x="233.447266"/>
      <use xlink:href="#ArialMT-74" x="255.664062"/>
      <use xlink:href="#ArialMT-79" x="283.447266"/>
     </g>
    </g>
   </g>
   <g id="line2d_29">
    <path d="M 204.667682 311.14582 
L 205.08838 310.519733 
L 205.368845 309.722073 
L 205.64931 308.425996 
L 206.070007 305.025832 
L 206.490705 298.955204 
L 206.911402 289.024827 
L 207.3321 274.143776 
L 207.89303 245.696942 
L 208.734425 188.123345 
L 209.996517 102.322954 
L 210.557447 76.562991 
L 211.118377 59.92579 
L 211.539074 52.426052 
L 211.959772 48.218045 
L 212.240237 46.868 
L 212.520702 46.470048 
L 212.660934 46.578208 
L 212.941399 47.31142 
L 213.362097 49.388233 
L 214.483957 55.793075 
L 214.764422 56.426774 
L 214.904654 56.481232 
L 215.044887 56.347046 
L 215.325352 55.501853 
L 215.746049 52.885312 
L 216.447212 46.120982 
L 217.288607 37.993351 
L 217.849537 34.666725 
L 218.270234 33.538535 
L 218.550699 33.299235 
L 218.971396 33.349581 
L 219.392094 33.400229 
L 219.672559 33.199128 
L 219.953024 32.707326 
L 220.373721 31.381389 
L 221.074884 28.027782 
L 222.056511 23.377055 
L 222.477209 22.174305 
L 222.757674 21.766719 
L 223.038139 21.709211 
L 223.318604 22.018047 
L 223.599069 22.695226 
L 224.019766 24.364833 
L 224.580696 27.625959 
L 225.281859 33.144542 
L 225.842788 39.592105 
L 226.263486 47.111764 
L 226.684183 58.604866 
L 227.104881 75.53533 
L 227.665811 107.714485 
L 228.507206 171.604717 
L 229.488833 244.661185 
L 230.049763 274.409448 
L 230.610693 293.454081 
L 231.031391 301.897684 
L 231.452088 306.79169 
L 231.872786 309.387049 
L 232.293483 310.646661 
L 232.573948 311.070247 
L 232.573948 311.070247 
" clip-path="url(#pafd19c2306)" style="fill: none; stroke: #a157db; stroke-width: 1.75; stroke-linecap: round"/>
   </g>
   <g id="line2d_30">
    <path d="M 127.367068 311.539395 
L 128.520176 311.398986 
L 129.385007 311.036897 
L 130.249839 310.311653 
L 131.691224 308.813909 
L 132.267778 308.510854 
L 132.844332 308.483232 
L 133.997441 308.865779 
L 134.862272 309.014655 
L 135.438826 308.890107 
L 136.01538 308.554682 
L 137.745043 307.143064 
L 138.321597 307.082879 
L 138.898151 307.321282 
L 140.339536 308.104589 
L 141.780922 308.547561 
L 142.357476 308.990688 
L 144.375416 310.946188 
L 144.95197 311.148146 
L 145.528524 311.053448 
L 145.816801 310.850132 
L 146.105078 310.495333 
L 146.393355 309.929905 
L 146.681632 309.068622 
L 146.969909 307.793487 
L 147.258186 305.947478 
L 147.83474 299.699343 
L 148.411295 288.266277 
L 148.987849 269.397917 
L 149.564403 241.676031 
L 150.429234 185.678566 
L 151.87062 89.605718 
L 152.447174 63.381347 
L 153.023728 46.428597 
L 153.600282 37.240996 
L 153.888559 34.818132 
L 154.176836 33.436886 
L 154.465113 32.829903 
L 154.75339 32.776957 
L 155.041667 33.11216 
L 155.618222 34.558853 
L 156.194776 36.846389 
L 156.77133 40.040686 
L 158.212715 49.501947 
L 158.500992 50.550041 
L 158.789269 50.944847 
L 159.077547 50.602649 
L 159.365824 49.517804 
L 159.942378 45.533566 
L 160.807209 38.442897 
L 161.095486 36.908035 
L 161.383763 36.18307 
L 161.67204 36.385642 
L 161.960317 37.523065 
L 162.536871 42.083287 
L 163.68998 53.087311 
L 163.978257 54.746993 
L 164.266534 55.708508 
L 164.554811 55.996636 
L 164.843088 55.713441 
L 165.419642 54.095513 
L 165.996196 52.383952 
L 166.284473 51.989218 
L 166.572751 52.163851 
L 166.861028 53.115999 
L 167.149305 55.075651 
L 167.437582 58.299491 
L 168.014136 69.652125 
L 168.59069 89.210348 
L 169.167244 117.821616 
L 170.320353 193.577086 
L 171.185184 247.793038 
L 171.761738 274.562755 
L 172.338292 292.435853 
L 172.914846 302.798779 
L 173.4914 308.017039 
L 174.067955 310.298913 
L 174.644509 311.164269 
L 175.221063 311.444838 
L 176.085894 311.508176 
L 177.239002 311.334162 
L 178.103834 310.991612 
L 179.833496 310.183084 
L 180.41005 310.170438 
L 181.274882 310.482373 
L 183.004544 311.312978 
L 184.157652 311.514716 
L 184.734207 311.544352 
L 184.734207 311.544352 
" clip-path="url(#pafd19c2306)" style="fill: none; stroke: #57d3db; stroke-width: 1.75; stroke-linecap: round"/>
   </g>
   <g id="line2d_31">
    <path d="M 143.119057 311.550642 
L 145.878497 311.425087 
L 147.718124 311.113828 
L 150.017658 310.422538 
L 153.696912 309.073942 
L 157.836073 307.336064 
L 158.755886 307.259298 
L 159.6757 307.374093 
L 162.43514 308.008562 
L 162.895047 307.880924 
L 163.354954 307.535418 
L 163.814861 306.861666 
L 164.274767 305.712843 
L 164.734674 303.902079 
L 165.194581 301.203285 
L 165.654488 297.35836 
L 166.114394 292.092249 
L 166.574301 285.136311 
L 167.494115 265.299608 
L 168.413928 237.048456 
L 169.793648 182.153892 
L 171.633275 106.040256 
L 172.553089 75.860699 
L 173.472902 53.519526 
L 174.392716 38.555777 
L 175.312529 29.438031 
L 175.772436 26.531658 
L 176.232343 24.48012 
L 176.69225 23.142401 
L 177.152156 22.413991 
L 177.612063 22.221283 
L 178.07197 22.512144 
L 178.531877 23.244541 
L 178.991783 24.375156 
L 179.911597 27.597923 
L 182.211131 37.00235 
L 183.130944 39.377765 
L 183.590851 40.115824 
L 184.050758 40.607744 
L 184.970571 41.174644 
L 185.890385 41.787689 
L 186.350291 42.288904 
L 187.270105 43.772146 
L 188.649825 46.403709 
L 189.109732 47.012081 
L 189.569639 47.326017 
L 190.029546 47.289635 
L 190.489452 46.894874 
L 190.949359 46.188594 
L 192.788986 42.715135 
L 193.248893 42.409386 
L 193.7088 42.521862 
L 194.168706 43.045158 
L 195.08852 44.967978 
L 196.008333 47.060064 
L 196.46824 47.778405 
L 196.928147 48.129537 
L 197.388054 48.0656 
L 197.84796 47.591239 
L 198.307867 46.753863 
L 199.227681 44.300015 
L 201.527214 37.188099 
L 201.987121 36.134756 
L 202.447028 35.424578 
L 202.906935 35.22428 
L 203.366841 35.75025 
L 203.826748 37.2649 
L 204.286655 40.063938 
L 204.746562 44.454457 
L 205.206468 50.725107 
L 205.666375 59.111113 
L 206.586189 82.691562 
L 207.506002 114.791678 
L 210.725349 243.8363 
L 211.645163 269.111949 
L 212.564976 286.353141 
L 213.48479 296.916435 
L 213.944697 300.323701 
L 214.404603 302.815862 
L 214.86451 304.607476 
L 215.324417 305.872861 
L 215.784324 306.745154 
L 216.24423 307.320444 
L 216.704137 307.664874 
L 217.164044 307.822786 
L 217.623951 307.824479 
L 218.543764 307.44674 
L 219.463578 306.691246 
L 222.682925 303.483384 
L 223.602738 303.067764 
L 224.062645 303.031711 
L 224.522552 303.126309 
L 224.982459 303.357264 
L 225.902272 304.214531 
L 226.822086 305.495122 
L 229.121619 309.061774 
L 230.041433 310.094849 
L 230.961247 310.788975 
L 231.88106 311.196916 
L 233.26078 311.46514 
L 234.640501 311.540878 
L 234.640501 311.540878 
" clip-path="url(#pafd19c2306)" style="fill: none; stroke: #91db57; stroke-width: 1.75; stroke-linecap: round"/>
   </g>
   <g id="line2d_32">
    <path d="M 55.673341 311.195606 
L 58.363711 310.824964 
L 61.054081 310.141906 
L 62.399266 309.622685 
L 63.744451 308.942281 
L 65.089636 308.061373 
L 66.434821 306.93459 
L 67.780006 305.510643 
L 69.125191 303.732828 
L 70.470376 301.539945 
L 71.815561 298.867694 
L 73.160746 295.650568 
L 74.505931 291.824224 
L 75.851116 287.32827 
L 77.196301 282.109388 
L 78.541486 276.124611 
L 79.886671 269.344602 
L 81.231856 261.7567 
L 82.577041 253.367492 
L 85.267411 234.318229 
L 87.957781 212.682918 
L 91.993336 177.224155 
L 96.028891 141.407118 
L 98.719261 119.151164 
L 101.409631 99.207293 
L 102.754816 90.279786 
L 104.100001 82.100431 
L 105.445187 74.682428 
L 106.790372 68.0208 
L 108.135557 62.095329 
L 109.480742 56.87401 
L 110.825927 52.31677 
L 112.171112 48.379198 
L 113.516297 45.016065 
L 114.861482 42.184463 
L 116.206667 39.846436 
L 117.551852 37.971055 
L 118.897037 36.535896 
L 120.242222 35.527974 
L 121.587407 34.944161 
L 122.932592 34.791155 
L 124.277777 35.08507 
L 125.622962 35.850682 
L 126.968147 37.12037 
L 128.313332 38.932763 
L 129.658517 41.331097 
L 131.003702 44.361268 
L 132.348887 48.069585 
L 133.694072 52.500236 
L 135.039257 57.692512 
L 136.384442 63.677863 
L 137.729627 70.476914 
L 139.074812 78.096592 
L 140.419997 86.527547 
L 143.110367 105.692709 
L 145.800737 127.511617 
L 149.836292 163.462983 
L 155.217032 211.800157 
L 157.907402 233.685972 
L 160.597772 252.914427 
L 161.942957 261.372924 
L 163.288142 269.019561 
L 164.633327 275.849587 
L 165.978512 281.877171 
L 167.323697 287.132846 
L 168.668882 291.660502 
L 170.014067 295.514166 
L 171.359252 298.754759 
L 172.704437 301.447018 
L 174.049622 303.656739 
L 175.394807 305.448413 
L 176.739992 306.88334 
L 178.085177 308.018208 
L 179.430362 308.904131 
L 180.775547 309.586093 
L 182.120732 310.102719 
L 184.811102 310.76309 
L 187.501472 311.07226 
L 190.191843 311.129561 
L 192.882213 310.954586 
L 195.572583 310.489035 
L 196.917768 310.106593 
L 198.262953 309.591457 
L 199.608138 308.911372 
L 200.953323 308.02775 
L 202.298508 306.895631 
L 203.643693 305.463893 
L 204.988878 303.675813 
L 206.334063 301.470024 
L 207.679248 298.781939 
L 209.024433 295.545654 
L 210.369618 291.696337 
L 211.714803 287.173023 
L 213.059988 281.921753 
L 214.405173 275.898877 
L 215.750358 269.074371 
L 217.095543 261.434927 
L 218.440728 252.986608 
L 221.131098 233.795428 
L 223.821468 211.988819 
L 227.857023 176.245257 
L 231.892578 140.197911 
L 234.582948 117.897611 
L 237.273318 98.066159 
L 238.618503 89.272088 
L 239.963688 81.285895 
L 241.308873 74.125132 
L 242.654058 67.787159 
L 243.999243 62.251701 
L 245.344428 57.484035 
L 246.689613 53.438584 
L 248.034798 50.062692 
L 249.379983 47.300375 
L 250.725168 45.095873 
L 252.070353 43.396859 
L 253.415538 42.157214 
L 254.760723 41.339296 
L 256.105908 40.915675 
L 257.451093 40.870313 
L 258.796278 41.199186 
L 260.141463 41.910358 
L 261.486648 43.023506 
L 262.831833 44.568924 
L 264.177018 46.58599 
L 265.522203 49.121145 
L 266.867388 52.225408 
L 268.212573 55.951482 
L 269.557758 60.350538 
L 270.902943 65.468787 
L 272.248128 71.343988 
L 273.593313 78.002045 
L 274.938499 85.453901 
L 276.283684 93.692905 
L 278.974054 112.406896 
L 281.664424 133.686474 
L 285.699979 168.66781 
L 289.735534 204.185743 
L 292.425904 226.35253 
L 295.116274 246.25258 
L 296.461459 255.154321 
L 297.806644 263.292523 
L 299.151829 270.644851 
L 300.497014 277.208733 
L 301.842199 282.999459 
L 303.187384 288.047677 
L 304.532569 292.396513 
L 305.877754 296.098496 
L 307.222939 299.212501 
L 308.568124 301.800861 
L 309.913309 303.926785 
L 311.258494 305.652169 
L 312.603679 307.03585 
L 313.948864 308.132317 
L 315.294049 308.990863 
L 316.639234 309.65512 
L 317.984419 310.162943 
L 320.674789 310.832882 
L 323.365159 311.197945 
L 323.365159 311.197945 
" clip-path="url(#pafd19c2306)" style="fill: none; stroke: #db5f57; stroke-width: 1.75; stroke-linecap: round"/>
   </g>
   <g id="patch_3">
    <path d="M 42.28875 311.56 
L 42.28875 7.2 
" style="fill: none; stroke: #cccccc; stroke-width: 1.25; stroke-linejoin: miter; stroke-linecap: square"/>
   </g>
   <g id="patch_4">
    <path d="M 42.28875 311.56 
L 336.74975 311.56 
" style="fill: none; stroke: #cccccc; stroke-width: 1.25; stroke-linejoin: miter; stroke-linecap: square"/>
   </g>
  </g>
  <g id="legend_1">
   <g id="text_17">
    <!-- Euclidean_labels -->
    <g style="fill: #262626" transform="translate(355.67125 149.294141)scale(0.12 -0.12)">
     <defs>
      <path id="ArialMT-45" d="M 506 0 
L 506 4581 
L 3819 4581 
L 3819 4041 
L 1113 4041 
L 1113 2638 
L 3647 2638 
L 3647 2100 
L 1113 2100 
L 1113 541 
L 3925 541 
L 3925 0 
L 506 0 
z
" transform="scale(0.015625)"/>
      <path id="ArialMT-75" d="M 2597 0 
L 2597 488 
Q 2209 -75 1544 -75 
Q 1250 -75 995 37 
Q 741 150 617 320 
Q 494 491 444 738 
Q 409 903 409 1263 
L 409 3319 
L 972 3319 
L 972 1478 
Q 972 1038 1006 884 
Q 1059 663 1231 536 
Q 1403 409 1656 409 
Q 1909 409 2131 539 
Q 2353 669 2445 892 
Q 2538 1116 2538 1541 
L 2538 3319 
L 3100 3319 
L 3100 0 
L 2597 0 
z
" transform="scale(0.015625)"/>
      <path id="ArialMT-63" d="M 2588 1216 
L 3141 1144 
Q 3050 572 2676 248 
Q 2303 -75 1759 -75 
Q 1078 -75 664 370 
Q 250 816 250 1647 
Q 250 2184 428 2587 
Q 606 2991 970 3192 
Q 1334 3394 1763 3394 
Q 2303 3394 2647 3120 
Q 2991 2847 3088 2344 
L 2541 2259 
Q 2463 2594 2264 2762 
Q 2066 2931 1784 2931 
Q 1359 2931 1093 2626 
Q 828 2322 828 1663 
Q 828 994 1084 691 
Q 1341 388 1753 388 
Q 2084 388 2306 591 
Q 2528 794 2588 1216 
z
" transform="scale(0.015625)"/>
      <path id="ArialMT-6c" d="M 409 0 
L 409 4581 
L 972 4581 
L 972 0 
L 409 0 
z
" transform="scale(0.015625)"/>
      <path id="ArialMT-64" d="M 2575 0 
L 2575 419 
Q 2259 -75 1647 -75 
Q 1250 -75 917 144 
Q 584 363 401 755 
Q 219 1147 219 1656 
Q 219 2153 384 2558 
Q 550 2963 881 3178 
Q 1213 3394 1622 3394 
Q 1922 3394 2156 3267 
Q 2391 3141 2538 2938 
L 2538 4581 
L 3097 4581 
L 3097 0 
L 2575 0 
z
M 797 1656 
Q 797 1019 1065 703 
Q 1334 388 1700 388 
Q 2069 388 2326 689 
Q 2584 991 2584 1609 
Q 2584 2291 2321 2609 
Q 2059 2928 1675 2928 
Q 1300 2928 1048 2622 
Q 797 2316 797 1656 
z
" transform="scale(0.015625)"/>
      <path id="ArialMT-61" d="M 2588 409 
Q 2275 144 1986 34 
Q 1697 -75 1366 -75 
Q 819 -75 525 192 
Q 231 459 231 875 
Q 231 1119 342 1320 
Q 453 1522 633 1644 
Q 813 1766 1038 1828 
Q 1203 1872 1538 1913 
Q 2219 1994 2541 2106 
Q 2544 2222 2544 2253 
Q 2544 2597 2384 2738 
Q 2169 2928 1744 2928 
Q 1347 2928 1158 2789 
Q 969 2650 878 2297 
L 328 2372 
Q 403 2725 575 2942 
Q 747 3159 1072 3276 
Q 1397 3394 1825 3394 
Q 2250 3394 2515 3294 
Q 2781 3194 2906 3042 
Q 3031 2891 3081 2659 
Q 3109 2516 3109 2141 
L 3109 1391 
Q 3109 606 3145 398 
Q 3181 191 3288 0 
L 2700 0 
Q 2613 175 2588 409 
z
M 2541 1666 
Q 2234 1541 1622 1453 
Q 1275 1403 1131 1340 
Q 988 1278 909 1158 
Q 831 1038 831 891 
Q 831 666 1001 516 
Q 1172 366 1500 366 
Q 1825 366 2078 508 
Q 2331 650 2450 897 
Q 2541 1088 2541 1459 
L 2541 1666 
z
" transform="scale(0.015625)"/>
      <path id="ArialMT-5f" d="M -97 -1272 
L -97 -866 
L 3631 -866 
L 3631 -1272 
L -97 -1272 
z
" transform="scale(0.015625)"/>
      <path id="ArialMT-62" d="M 941 0 
L 419 0 
L 419 4581 
L 981 4581 
L 981 2947 
Q 1338 3394 1891 3394 
Q 2197 3394 2470 3270 
Q 2744 3147 2920 2923 
Q 3097 2700 3197 2384 
Q 3297 2069 3297 1709 
Q 3297 856 2875 390 
Q 2453 -75 1863 -75 
Q 1275 -75 941 416 
L 941 0 
z
M 934 1684 
Q 934 1088 1097 822 
Q 1363 388 1816 388 
Q 2184 388 2453 708 
Q 2722 1028 2722 1663 
Q 2722 2313 2464 2622 
Q 2206 2931 1841 2931 
Q 1472 2931 1203 2611 
Q 934 2291 934 1684 
z
" transform="scale(0.015625)"/>
     </defs>
     <use xlink:href="#ArialMT-45"/>
     <use xlink:href="#ArialMT-75" x="66.699219"/>
     <use xlink:href="#ArialMT-63" x="122.314453"/>
     <use xlink:href="#ArialMT-6c" x="172.314453"/>
     <use xlink:href="#ArialMT-69" x="194.53125"/>
     <use xlink:href="#ArialMT-64" x="216.748047"/>
     <use xlink:href="#ArialMT-65" x="272.363281"/>
     <use xlink:href="#ArialMT-61" x="327.978516"/>
     <use xlink:href="#ArialMT-6e" x="383.59375"/>
     <use xlink:href="#ArialMT-5f" x="439.208984"/>
     <use xlink:href="#ArialMT-6c" x="494.824219"/>
     <use xlink:href="#ArialMT-61" x="517.041016"/>
     <use xlink:href="#ArialMT-62" x="572.65625"/>
     <use xlink:href="#ArialMT-65" x="628.271484"/>
     <use xlink:href="#ArialMT-6c" x="683.886719"/>
     <use xlink:href="#ArialMT-73" x="706.103516"/>
    </g>
   </g>
   <g id="line2d_33">
    <path d="M 384.254531 160.336953 
L 394.254531 160.336953 
L 404.254531 160.336953 
" style="fill: none; stroke: #db5f57; stroke-width: 1.75; stroke-linecap: round"/>
   </g>
   <g id="text_18">
    <!-- 0 -->
    <g style="fill: #262626" transform="translate(412.254531 163.836953)scale(0.1 -0.1)">
     <use xlink:href="#ArialMT-30"/>
    </g>
   </g>
   <g id="line2d_34">
    <path d="M 384.254531 174.482266 
L 394.254531 174.482266 
L 404.254531 174.482266 
" style="fill: none; stroke: #91db57; stroke-width: 1.75; stroke-linecap: round"/>
   </g>
   <g id="text_19">
    <!-- 1 -->
    <g style="fill: #262626" transform="translate(412.254531 177.982266)scale(0.1 -0.1)">
     <use xlink:href="#ArialMT-31"/>
    </g>
   </g>
   <g id="line2d_35">
    <path d="M 384.254531 188.627578 
L 394.254531 188.627578 
L 404.254531 188.627578 
" style="fill: none; stroke: #57d3db; stroke-width: 1.75; stroke-linecap: round"/>
   </g>
   <g id="text_20">
    <!-- 2 -->
    <g style="fill: #262626" transform="translate(412.254531 192.127578)scale(0.1 -0.1)">
     <use xlink:href="#ArialMT-32"/>
    </g>
   </g>
   <g id="line2d_36">
    <path d="M 384.254531 202.772891 
L 394.254531 202.772891 
L 404.254531 202.772891 
" style="fill: none; stroke: #a157db; stroke-width: 1.75; stroke-linecap: round"/>
   </g>
   <g id="text_21">
    <!-- 3 -->
    <g style="fill: #262626" transform="translate(412.254531 206.272891)scale(0.1 -0.1)">
     <defs>
      <path id="ArialMT-33" d="M 269 1209 
L 831 1284 
Q 928 806 1161 595 
Q 1394 384 1728 384 
Q 2125 384 2398 659 
Q 2672 934 2672 1341 
Q 2672 1728 2419 1979 
Q 2166 2231 1775 2231 
Q 1616 2231 1378 2169 
L 1441 2663 
Q 1497 2656 1531 2656 
Q 1891 2656 2178 2843 
Q 2466 3031 2466 3422 
Q 2466 3731 2256 3934 
Q 2047 4138 1716 4138 
Q 1388 4138 1169 3931 
Q 950 3725 888 3313 
L 325 3413 
Q 428 3978 793 4289 
Q 1159 4600 1703 4600 
Q 2078 4600 2393 4439 
Q 2709 4278 2876 4000 
Q 3044 3722 3044 3409 
Q 3044 3113 2884 2869 
Q 2725 2625 2413 2481 
Q 2819 2388 3044 2092 
Q 3269 1797 3269 1353 
Q 3269 753 2831 336 
Q 2394 -81 1725 -81 
Q 1122 -81 723 278 
Q 325 638 269 1209 
z
" transform="scale(0.015625)"/>
     </defs>
     <use xlink:href="#ArialMT-33"/>
    </g>
   </g>
  </g>
 </g>
 <defs>
  <clipPath id="pafd19c2306">
   <rect x="42.28875" y="7.2" width="294.461" height="304.36"/>
  </clipPath>
 </defs>
</svg>
