<?xml version="1.0" encoding="utf-8" standalone="no"?>
<!DOCTYPE svg PUBLIC "-//W3C//DTD SVG 1.1//EN"
  "http://www.w3.org/Graphics/SVG/1.1/DTD/svg11.dtd">
<svg xmlns:xlink="http://www.w3.org/1999/xlink" width="455.39875pt" height="348.965156pt" viewBox="0 0 455.39875 348.965156" xmlns="http://www.w3.org/2000/svg" version="1.1">
 <metadata>
  <rdf:RDF xmlns:dc="http://purl.org/dc/elements/1.1/" xmlns:cc="http://creativecommons.org/ns#" xmlns:rdf="http://www.w3.org/1999/02/22-rdf-syntax-ns#">
   <cc:Work>
    <dc:type rdf:resource="http://purl.org/dc/dcmitype/StillImage"/>
    <dc:date>2023-04-12T01:44:58.153792</dc:date>
    <dc:format>image/svg+xml</dc:format>
    <dc:creator>
     <cc:Agent>
      <dc:title>Matplotlib v3.5.2, https://matplotlib.org/</dc:title>
     </cc:Agent>
    </dc:creator>
   </cc:Work>
  </rdf:RDF>
 </metadata>
 <defs>
  <style type="text/css">*{stroke-linejoin: round; stroke-linecap: butt}</style>
 </defs>
 <g id="figure_1">
  <g id="patch_1">
   <path d="M 0 348.965156 
L 455.39875 348.965156 
L 455.39875 0 
L 0 0 
z
" style="fill: #ffffff"/>
  </g>
  <g id="axes_1">
   <g id="patch_2">
    <path d="M 42.28875 311.56 
L 336.74975 311.56 
L 336.74975 7.2 
L 42.28875 7.2 
z
" style="fill: #ffffff"/>
   </g>
   <g id="matplotlib.axis_1">
    <g id="xtick_1">
     <g id="line2d_1">
      <path d="M 68.411689 311.56 
L 68.411689 7.2 
" clip-path="url(#pcc40421154)" style="fill: none; stroke: #cccccc; stroke-linecap: round"/>
     </g>
     <g id="line2d_2"/>
     <g id="text_1">
      <!-- 0.0 -->
      <g style="fill: #262626" transform="translate(61.461689 325.717812)scale(0.1 -0.1)">
       <defs>
        <path id="ArialMT-30" d="M 266 2259 
Q 266 3072 433 3567 
Q 600 4063 929 4331 
Q 1259 4600 1759 4600 
Q 2128 4600 2406 4451 
Q 2684 4303 2865 4023 
Q 3047 3744 3150 3342 
Q 3253 2941 3253 2259 
Q 3253 1453 3087 958 
Q 2922 463 2592 192 
Q 2263 -78 1759 -78 
Q 1097 -78 719 397 
Q 266 969 266 2259 
z
M 844 2259 
Q 844 1131 1108 757 
Q 1372 384 1759 384 
Q 2147 384 2411 759 
Q 2675 1134 2675 2259 
Q 2675 3391 2411 3762 
Q 2147 4134 1753 4134 
Q 1366 4134 1134 3806 
Q 844 3388 844 2259 
z
" transform="scale(0.015625)"/>
        <path id="ArialMT-2e" d="M 581 0 
L 581 641 
L 1222 641 
L 1222 0 
L 581 0 
z
" transform="scale(0.015625)"/>
       </defs>
       <use xlink:href="#ArialMT-30"/>
       <use xlink:href="#ArialMT-2e" x="55.615234"/>
       <use xlink:href="#ArialMT-30" x="83.398438"/>
      </g>
     </g>
    </g>
    <g id="xtick_2">
     <g id="line2d_3">
      <path d="M 117.440768 311.56 
L 117.440768 7.2 
" clip-path="url(#pcc40421154)" style="fill: none; stroke: #cccccc; stroke-linecap: round"/>
     </g>
     <g id="line2d_4"/>
     <g id="text_2">
      <!-- 0.2 -->
      <g style="fill: #262626" transform="translate(110.490768 325.717812)scale(0.1 -0.1)">
       <defs>
        <path id="ArialMT-32" d="M 3222 541 
L 3222 0 
L 194 0 
Q 188 203 259 391 
Q 375 700 629 1000 
Q 884 1300 1366 1694 
Q 2113 2306 2375 2664 
Q 2638 3022 2638 3341 
Q 2638 3675 2398 3904 
Q 2159 4134 1775 4134 
Q 1369 4134 1125 3890 
Q 881 3647 878 3216 
L 300 3275 
Q 359 3922 746 4261 
Q 1134 4600 1788 4600 
Q 2447 4600 2831 4234 
Q 3216 3869 3216 3328 
Q 3216 3053 3103 2787 
Q 2991 2522 2730 2228 
Q 2469 1934 1863 1422 
Q 1356 997 1212 845 
Q 1069 694 975 541 
L 3222 541 
z
" transform="scale(0.015625)"/>
       </defs>
       <use xlink:href="#ArialMT-30"/>
       <use xlink:href="#ArialMT-2e" x="55.615234"/>
       <use xlink:href="#ArialMT-32" x="83.398438"/>
      </g>
     </g>
    </g>
    <g id="xtick_3">
     <g id="line2d_5">
      <path d="M 166.469848 311.56 
L 166.469848 7.2 
" clip-path="url(#pcc40421154)" style="fill: none; stroke: #cccccc; stroke-linecap: round"/>
     </g>
     <g id="line2d_6"/>
     <g id="text_3">
      <!-- 0.4 -->
      <g style="fill: #262626" transform="translate(159.519848 325.717812)scale(0.1 -0.1)">
       <defs>
        <path id="ArialMT-34" d="M 2069 0 
L 2069 1097 
L 81 1097 
L 81 1613 
L 2172 4581 
L 2631 4581 
L 2631 1613 
L 3250 1613 
L 3250 1097 
L 2631 1097 
L 2631 0 
L 2069 0 
z
M 2069 1613 
L 2069 3678 
L 634 1613 
L 2069 1613 
z
" transform="scale(0.015625)"/>
       </defs>
       <use xlink:href="#ArialMT-30"/>
       <use xlink:href="#ArialMT-2e" x="55.615234"/>
       <use xlink:href="#ArialMT-34" x="83.398438"/>
      </g>
     </g>
    </g>
    <g id="xtick_4">
     <g id="line2d_7">
      <path d="M 215.498927 311.56 
L 215.498927 7.2 
" clip-path="url(#pcc40421154)" style="fill: none; stroke: #cccccc; stroke-linecap: round"/>
     </g>
     <g id="line2d_8"/>
     <g id="text_4">
      <!-- 0.6 -->
      <g style="fill: #262626" transform="translate(208.548927 325.717812)scale(0.1 -0.1)">
       <defs>
        <path id="ArialMT-36" d="M 3184 3459 
L 2625 3416 
Q 2550 3747 2413 3897 
Q 2184 4138 1850 4138 
Q 1581 4138 1378 3988 
Q 1113 3794 959 3422 
Q 806 3050 800 2363 
Q 1003 2672 1297 2822 
Q 1591 2972 1913 2972 
Q 2475 2972 2870 2558 
Q 3266 2144 3266 1488 
Q 3266 1056 3080 686 
Q 2894 316 2569 119 
Q 2244 -78 1831 -78 
Q 1128 -78 684 439 
Q 241 956 241 2144 
Q 241 3472 731 4075 
Q 1159 4600 1884 4600 
Q 2425 4600 2770 4297 
Q 3116 3994 3184 3459 
z
M 888 1484 
Q 888 1194 1011 928 
Q 1134 663 1356 523 
Q 1578 384 1822 384 
Q 2178 384 2434 671 
Q 2691 959 2691 1453 
Q 2691 1928 2437 2201 
Q 2184 2475 1800 2475 
Q 1419 2475 1153 2201 
Q 888 1928 888 1484 
z
" transform="scale(0.015625)"/>
       </defs>
       <use xlink:href="#ArialMT-30"/>
       <use xlink:href="#ArialMT-2e" x="55.615234"/>
       <use xlink:href="#ArialMT-36" x="83.398438"/>
      </g>
     </g>
    </g>
    <g id="xtick_5">
     <g id="line2d_9">
      <path d="M 264.528006 311.56 
L 264.528006 7.2 
" clip-path="url(#pcc40421154)" style="fill: none; stroke: #cccccc; stroke-linecap: round"/>
     </g>
     <g id="line2d_10"/>
     <g id="text_5">
      <!-- 0.8 -->
      <g style="fill: #262626" transform="translate(257.578006 325.717812)scale(0.1 -0.1)">
       <defs>
        <path id="ArialMT-38" d="M 1131 2484 
Q 781 2613 612 2850 
Q 444 3088 444 3419 
Q 444 3919 803 4259 
Q 1163 4600 1759 4600 
Q 2359 4600 2725 4251 
Q 3091 3903 3091 3403 
Q 3091 3084 2923 2848 
Q 2756 2613 2416 2484 
Q 2838 2347 3058 2040 
Q 3278 1734 3278 1309 
Q 3278 722 2862 322 
Q 2447 -78 1769 -78 
Q 1091 -78 675 323 
Q 259 725 259 1325 
Q 259 1772 486 2073 
Q 713 2375 1131 2484 
z
M 1019 3438 
Q 1019 3113 1228 2906 
Q 1438 2700 1772 2700 
Q 2097 2700 2305 2904 
Q 2513 3109 2513 3406 
Q 2513 3716 2298 3927 
Q 2084 4138 1766 4138 
Q 1444 4138 1231 3931 
Q 1019 3725 1019 3438 
z
M 838 1322 
Q 838 1081 952 856 
Q 1066 631 1291 507 
Q 1516 384 1775 384 
Q 2178 384 2440 643 
Q 2703 903 2703 1303 
Q 2703 1709 2433 1975 
Q 2163 2241 1756 2241 
Q 1359 2241 1098 1978 
Q 838 1716 838 1322 
z
" transform="scale(0.015625)"/>
       </defs>
       <use xlink:href="#ArialMT-30"/>
       <use xlink:href="#ArialMT-2e" x="55.615234"/>
       <use xlink:href="#ArialMT-38" x="83.398438"/>
      </g>
     </g>
    </g>
    <g id="xtick_6">
     <g id="line2d_11">
      <path d="M 313.557086 311.56 
L 313.557086 7.2 
" clip-path="url(#pcc40421154)" style="fill: none; stroke: #cccccc; stroke-linecap: round"/>
     </g>
     <g id="line2d_12"/>
     <g id="text_6">
      <!-- 1.0 -->
      <g style="fill: #262626" transform="translate(306.607086 325.717812)scale(0.1 -0.1)">
       <defs>
        <path id="ArialMT-31" d="M 2384 0 
L 1822 0 
L 1822 3584 
Q 1619 3391 1289 3197 
Q 959 3003 697 2906 
L 697 3450 
Q 1169 3672 1522 3987 
Q 1875 4303 2022 4600 
L 2384 4600 
L 2384 0 
z
" transform="scale(0.015625)"/>
       </defs>
       <use xlink:href="#ArialMT-31"/>
       <use xlink:href="#ArialMT-2e" x="55.615234"/>
       <use xlink:href="#ArialMT-30" x="83.398438"/>
      </g>
     </g>
    </g>
    <g id="text_7">
     <!-- 0 -->
     <g style="fill: #262626" transform="translate(186.460734 339.578906)scale(0.11 -0.11)">
      <use xlink:href="#ArialMT-30"/>
     </g>
    </g>
   </g>
   <g id="matplotlib.axis_2">
    <g id="ytick_1">
     <g id="line2d_13">
      <path d="M 42.28875 311.56 
L 336.74975 311.56 
" clip-path="url(#pcc40421154)" style="fill: none; stroke: #cccccc; stroke-linecap: round"/>
     </g>
     <g id="line2d_14"/>
     <g id="text_8">
      <!-- 0.0 -->
      <g style="fill: #262626" transform="translate(21.38875 315.138906)scale(0.1 -0.1)">
       <use xlink:href="#ArialMT-30"/>
       <use xlink:href="#ArialMT-2e" x="55.615234"/>
       <use xlink:href="#ArialMT-30" x="83.398438"/>
      </g>
     </g>
    </g>
    <g id="ytick_2">
     <g id="line2d_15">
      <path d="M 42.28875 257.232358 
L 336.74975 257.232358 
" clip-path="url(#pcc40421154)" style="fill: none; stroke: #cccccc; stroke-linecap: round"/>
     </g>
     <g id="line2d_16"/>
     <g id="text_9">
      <!-- 0.2 -->
      <g style="fill: #262626" transform="translate(21.38875 260.811264)scale(0.1 -0.1)">
       <use xlink:href="#ArialMT-30"/>
       <use xlink:href="#ArialMT-2e" x="55.615234"/>
       <use xlink:href="#ArialMT-32" x="83.398438"/>
      </g>
     </g>
    </g>
    <g id="ytick_3">
     <g id="line2d_17">
      <path d="M 42.28875 202.904716 
L 336.74975 202.904716 
" clip-path="url(#pcc40421154)" style="fill: none; stroke: #cccccc; stroke-linecap: round"/>
     </g>
     <g id="line2d_18"/>
     <g id="text_10">
      <!-- 0.4 -->
      <g style="fill: #262626" transform="translate(21.38875 206.483622)scale(0.1 -0.1)">
       <use xlink:href="#ArialMT-30"/>
       <use xlink:href="#ArialMT-2e" x="55.615234"/>
       <use xlink:href="#ArialMT-34" x="83.398438"/>
      </g>
     </g>
    </g>
    <g id="ytick_4">
     <g id="line2d_19">
      <path d="M 42.28875 148.577073 
L 336.74975 148.577073 
" clip-path="url(#pcc40421154)" style="fill: none; stroke: #cccccc; stroke-linecap: round"/>
     </g>
     <g id="line2d_20"/>
     <g id="text_11">
      <!-- 0.6 -->
      <g style="fill: #262626" transform="translate(21.38875 152.15598)scale(0.1 -0.1)">
       <use xlink:href="#ArialMT-30"/>
       <use xlink:href="#ArialMT-2e" x="55.615234"/>
       <use xlink:href="#ArialMT-36" x="83.398438"/>
      </g>
     </g>
    </g>
    <g id="ytick_5">
     <g id="line2d_21">
      <path d="M 42.28875 94.249431 
L 336.74975 94.249431 
" clip-path="url(#pcc40421154)" style="fill: none; stroke: #cccccc; stroke-linecap: round"/>
     </g>
     <g id="line2d_22"/>
     <g id="text_12">
      <!-- 0.8 -->
      <g style="fill: #262626" transform="translate(21.38875 97.828337)scale(0.1 -0.1)">
       <use xlink:href="#ArialMT-30"/>
       <use xlink:href="#ArialMT-2e" x="55.615234"/>
       <use xlink:href="#ArialMT-38" x="83.398438"/>
      </g>
     </g>
    </g>
    <g id="ytick_6">
     <g id="line2d_23">
      <path d="M 42.28875 39.921789 
L 336.74975 39.921789 
" clip-path="url(#pcc40421154)" style="fill: none; stroke: #cccccc; stroke-linecap: round"/>
     </g>
     <g id="line2d_24"/>
     <g id="text_13">
      <!-- 1.0 -->
      <g style="fill: #262626" transform="translate(21.38875 43.500695)scale(0.1 -0.1)">
       <use xlink:href="#ArialMT-31"/>
       <use xlink:href="#ArialMT-2e" x="55.615234"/>
       <use xlink:href="#ArialMT-30" x="83.398438"/>
      </g>
     </g>
    </g>
    <g id="text_14">
     <!-- Density -->
     <g style="fill: #262626" transform="translate(15.073594 177.719062)rotate(-90)scale(0.11 -0.11)">
      <defs>
       <path id="ArialMT-44" d="M 494 0 
L 494 4581 
L 2072 4581 
Q 2606 4581 2888 4516 
Q 3281 4425 3559 4188 
Q 3922 3881 4101 3404 
Q 4281 2928 4281 2316 
Q 4281 1794 4159 1391 
Q 4038 988 3847 723 
Q 3656 459 3429 307 
Q 3203 156 2883 78 
Q 2563 0 2147 0 
L 494 0 
z
M 1100 541 
L 2078 541 
Q 2531 541 2789 625 
Q 3047 709 3200 863 
Q 3416 1078 3536 1442 
Q 3656 1806 3656 2325 
Q 3656 3044 3420 3430 
Q 3184 3816 2847 3947 
Q 2603 4041 2063 4041 
L 1100 4041 
L 1100 541 
z
" transform="scale(0.015625)"/>
       <path id="ArialMT-65" d="M 2694 1069 
L 3275 997 
Q 3138 488 2766 206 
Q 2394 -75 1816 -75 
Q 1088 -75 661 373 
Q 234 822 234 1631 
Q 234 2469 665 2931 
Q 1097 3394 1784 3394 
Q 2450 3394 2872 2941 
Q 3294 2488 3294 1666 
Q 3294 1616 3291 1516 
L 816 1516 
Q 847 969 1125 678 
Q 1403 388 1819 388 
Q 2128 388 2347 550 
Q 2566 713 2694 1069 
z
M 847 1978 
L 2700 1978 
Q 2663 2397 2488 2606 
Q 2219 2931 1791 2931 
Q 1403 2931 1139 2672 
Q 875 2413 847 1978 
z
" transform="scale(0.015625)"/>
       <path id="ArialMT-6e" d="M 422 0 
L 422 3319 
L 928 3319 
L 928 2847 
Q 1294 3394 1984 3394 
Q 2284 3394 2536 3286 
Q 2788 3178 2913 3003 
Q 3038 2828 3088 2588 
Q 3119 2431 3119 2041 
L 3119 0 
L 2556 0 
L 2556 2019 
Q 2556 2363 2490 2533 
Q 2425 2703 2258 2804 
Q 2091 2906 1866 2906 
Q 1506 2906 1245 2678 
Q 984 2450 984 1813 
L 984 0 
L 422 0 
z
" transform="scale(0.015625)"/>
       <path id="ArialMT-73" d="M 197 991 
L 753 1078 
Q 800 744 1014 566 
Q 1228 388 1613 388 
Q 2000 388 2187 545 
Q 2375 703 2375 916 
Q 2375 1106 2209 1216 
Q 2094 1291 1634 1406 
Q 1016 1563 777 1677 
Q 538 1791 414 1992 
Q 291 2194 291 2438 
Q 291 2659 392 2848 
Q 494 3038 669 3163 
Q 800 3259 1026 3326 
Q 1253 3394 1513 3394 
Q 1903 3394 2198 3281 
Q 2494 3169 2634 2976 
Q 2775 2784 2828 2463 
L 2278 2388 
Q 2241 2644 2061 2787 
Q 1881 2931 1553 2931 
Q 1166 2931 1000 2803 
Q 834 2675 834 2503 
Q 834 2394 903 2306 
Q 972 2216 1119 2156 
Q 1203 2125 1616 2013 
Q 2213 1853 2448 1751 
Q 2684 1650 2818 1456 
Q 2953 1263 2953 975 
Q 2953 694 2789 445 
Q 2625 197 2315 61 
Q 2006 -75 1616 -75 
Q 969 -75 630 194 
Q 291 463 197 991 
z
" transform="scale(0.015625)"/>
       <path id="ArialMT-69" d="M 425 3934 
L 425 4581 
L 988 4581 
L 988 3934 
L 425 3934 
z
M 425 0 
L 425 3319 
L 988 3319 
L 988 0 
L 425 0 
z
" transform="scale(0.015625)"/>
       <path id="ArialMT-74" d="M 1650 503 
L 1731 6 
Q 1494 -44 1306 -44 
Q 1000 -44 831 53 
Q 663 150 594 308 
Q 525 466 525 972 
L 525 2881 
L 113 2881 
L 113 3319 
L 525 3319 
L 525 4141 
L 1084 4478 
L 1084 3319 
L 1650 3319 
L 1650 2881 
L 1084 2881 
L 1084 941 
Q 1084 700 1114 631 
Q 1144 563 1211 522 
Q 1278 481 1403 481 
Q 1497 481 1650 503 
z
" transform="scale(0.015625)"/>
       <path id="ArialMT-79" d="M 397 -1278 
L 334 -750 
Q 519 -800 656 -800 
Q 844 -800 956 -737 
Q 1069 -675 1141 -563 
Q 1194 -478 1313 -144 
Q 1328 -97 1363 -6 
L 103 3319 
L 709 3319 
L 1400 1397 
Q 1534 1031 1641 628 
Q 1738 1016 1872 1384 
L 2581 3319 
L 3144 3319 
L 1881 -56 
Q 1678 -603 1566 -809 
Q 1416 -1088 1222 -1217 
Q 1028 -1347 759 -1347 
Q 597 -1347 397 -1278 
z
" transform="scale(0.015625)"/>
      </defs>
      <use xlink:href="#ArialMT-44"/>
      <use xlink:href="#ArialMT-65" x="72.216797"/>
      <use xlink:href="#ArialMT-6e" x="127.832031"/>
      <use xlink:href="#ArialMT-73" x="183.447266"/>
      <use xlink:href="#ArialMT-69" x="233.447266"/>
      <use xlink:href="#ArialMT-74" x="255.664062"/>
      <use xlink:href="#ArialMT-79" x="283.447266"/>
     </g>
    </g>
   </g>
   <g id="line2d_25">
    <path d="M 55.673341 311.232883 
L 56.668099 310.872662 
L 57.662857 310.185716 
L 58.160236 309.652235 
L 58.657615 308.943716 
L 59.154994 308.015172 
L 59.652373 306.81433 
L 60.149752 305.281777 
L 60.647131 303.351564 
L 61.641889 298.009106 
L 62.636647 290.186833 
L 63.631405 279.314363 
L 64.626163 264.964321 
L 65.620921 246.974896 
L 66.615679 225.551357 
L 68.107816 188.443689 
L 71.09209 110.968663 
L 72.086848 89.021074 
L 73.081606 70.707091 
L 74.076364 56.460806 
L 75.071122 46.280186 
L 75.568501 42.610443 
L 76.06588 39.796327 
L 76.563259 37.754397 
L 77.060638 36.394664 
L 77.558017 35.624763 
L 78.055396 35.353593 
L 78.552775 35.494283 
L 79.050154 35.96637 
L 80.044912 37.622487 
L 81.537049 41.046099 
L 83.526565 45.747495 
L 84.521323 47.712778 
L 85.516081 49.262953 
L 86.510839 50.344308 
L 87.505596 50.957156 
L 88.500354 51.151616 
L 89.495112 51.013275 
L 90.48987 50.640444 
L 91.982007 49.819881 
L 93.474144 48.788684 
L 94.966281 47.448844 
L 95.961039 46.252379 
L 96.955797 44.70414 
L 97.950555 42.733517 
L 98.945313 40.321703 
L 100.43745 36.022588 
L 102.924345 28.56858 
L 103.919103 26.198311 
L 104.913861 24.481651 
L 105.41124 23.894802 
L 105.908619 23.486696 
L 106.405998 23.245451 
L 106.903377 23.151992 
L 107.898135 23.305461 
L 111.877167 24.742555 
L 113.369304 25.060182 
L 114.364062 25.501875 
L 115.35882 26.308725 
L 116.353578 27.55603 
L 117.348336 29.219209 
L 118.840473 32.226119 
L 120.829989 36.262305 
L 121.824747 37.921384 
L 122.819505 39.191963 
L 123.814263 40.020045 
L 124.809021 40.394559 
L 125.803779 40.343971 
L 126.798537 39.934309 
L 128.290674 38.878441 
L 129.782811 37.736356 
L 130.777569 37.249455 
L 131.274948 37.181827 
L 131.772327 37.283537 
L 132.269706 37.601197 
L 132.767085 38.188459 
L 133.264464 39.106558 
L 133.761843 40.424382 
L 134.259222 42.217886 
L 134.756601 44.568699 
L 135.25398 47.561829 
L 136.248738 55.811729 
L 137.243496 67.572541 
L 138.238254 83.226658 
L 139.233012 102.779579 
L 140.725149 138.247027 
L 144.704181 239.509873 
L 145.698939 259.223228 
L 146.693697 275.171594 
L 147.688455 287.376587 
L 148.683213 296.214556 
L 149.677971 302.271714 
L 150.672729 306.201572 
L 151.667487 308.61565 
L 152.662245 310.019933 
L 153.657003 310.793572 
L 154.651761 311.197258 
L 154.651761 311.197258 
" clip-path="url(#pcc40421154)" style="fill: none; stroke: #db57c0; stroke-width: 1.75; stroke-linecap: round"/>
   </g>
   <g id="line2d_26">
    <path d="M 234.777228 311.15078 
L 235.128906 310.791732 
L 235.480584 310.171084 
L 235.832262 309.141316 
L 236.18394 307.501411 
L 236.535617 304.99491 
L 237.063134 298.938015 
L 237.590651 289.148008 
L 238.118168 274.716931 
L 238.821523 247.81193 
L 239.876557 195.664413 
L 241.107429 135.849085 
L 241.986624 103.499524 
L 243.041657 74.243181 
L 244.272529 46.111194 
L 244.975885 34.278437 
L 245.503402 28.976805 
L 245.85508 27.323766 
L 246.030919 27.019305 
L 246.206758 27.019479 
L 246.382596 27.281105 
L 246.734274 28.388538 
L 247.965147 33.35281 
L 248.492663 34.390646 
L 249.371858 35.523482 
L 249.723536 36.333095 
L 250.251052 38.19247 
L 251.481925 42.971 
L 251.833603 43.444276 
L 252.009442 43.438181 
L 252.361119 42.955059 
L 252.888636 41.346026 
L 253.591992 38.998486 
L 253.94367 38.466935 
L 254.119509 38.48562 
L 254.295347 38.726559 
L 254.647025 39.927642 
L 254.998703 42.092851 
L 255.52622 46.885355 
L 257.284609 64.799486 
L 257.636287 66.591438 
L 257.987965 67.464966 
L 258.163804 67.583402 
L 258.339642 67.519479 
L 258.69132 66.97568 
L 259.570515 65.175227 
L 259.746354 65.107709 
L 259.922193 65.2394 
L 260.098032 65.607791 
L 260.449709 67.185201 
L 260.801387 70.06443 
L 261.328904 77.200671 
L 261.856421 88.132503 
L 262.559776 109.227593 
L 263.263132 137.870923 
L 264.494004 200.286055 
L 265.549038 251.486237 
L 266.252393 277.04533 
L 266.955749 294.075983 
L 267.483266 301.93756 
L 268.010783 306.659006 
L 268.538299 309.25458 
L 269.065816 310.560115 
L 269.593333 311.160719 
L 269.769172 311.271379 
L 269.769172 311.271379 
" clip-path="url(#pcc40421154)" style="fill: none; stroke: #8557db; stroke-width: 1.75; stroke-linecap: round"/>
   </g>
   <g id="line2d_27">
    <path d="M 161.154598 311.166845 
L 161.588494 310.709548 
L 162.022389 309.818288 
L 162.456285 308.181088 
L 162.89018 305.346696 
L 163.324076 300.722488 
L 163.757971 293.61396 
L 164.191867 283.3192 
L 164.84271 260.7553 
L 165.493553 229.429247 
L 166.79524 151.387802 
L 167.663031 103.853373 
L 168.313874 77.469091 
L 168.964717 59.792041 
L 169.61556 48.832276 
L 170.266404 41.725434 
L 171.134195 34.710996 
L 171.785038 30.598226 
L 172.435881 27.898598 
L 172.869777 27.00569 
L 173.303672 26.6972 
L 174.388411 26.534253 
L 174.822306 26.009993 
L 175.47315 24.557641 
L 176.340941 22.429083 
L 176.774836 21.850026 
L 176.991784 21.762928 
L 177.208732 21.825601 
L 177.642627 22.411979 
L 178.076523 23.597925 
L 178.727366 26.422152 
L 179.378209 30.414824 
L 180.246 37.296664 
L 181.764634 49.72009 
L 182.19853 51.940966 
L 182.632425 53.095987 
L 182.849373 53.244109 
L 183.066321 53.110804 
L 183.283269 52.713202 
L 183.717164 51.244183 
L 184.584955 46.862926 
L 185.235798 43.935449 
L 185.669694 42.812966 
L 185.886642 42.583179 
L 186.103589 42.595099 
L 186.320537 42.858717 
L 186.754433 44.177632 
L 187.188328 46.650793 
L 187.622224 50.513693 
L 188.056119 56.182471 
L 188.490015 64.235389 
L 189.140858 82.144301 
L 189.791701 108.238793 
L 190.659492 154.448715 
L 192.395074 251.451026 
L 193.045917 276.62459 
L 193.696761 293.362236 
L 194.130656 300.486943 
L 194.564552 305.133489 
L 194.998447 307.966853 
L 195.432343 309.562246 
L 195.866238 310.362684 
L 196.300134 310.679346 
L 196.734029 310.716764 
L 197.60182 310.432546 
L 198.686559 310.085255 
L 199.337402 310.091527 
L 200.205193 310.37331 
L 202.374671 311.314546 
L 203.459409 311.49618 
L 204.3272 311.543389 
L 204.3272 311.543389 
" clip-path="url(#pcc40421154)" style="fill: none; stroke: #579bdb; stroke-width: 1.75; stroke-linecap: round"/>
   </g>
   <g id="line2d_28">
    <path d="M 185.584294 311.243451 
L 186.125031 310.755382 
L 186.665769 309.674624 
L 187.206507 307.48267 
L 187.747245 303.410158 
L 188.287982 296.476833 
L 188.82872 285.655782 
L 189.369458 270.161056 
L 190.180564 237.904995 
L 191.532409 168.758469 
L 192.884253 103.211176 
L 193.69536 72.845832 
L 194.506466 50.508627 
L 195.047204 40.469244 
L 195.587942 34.645094 
L 195.858311 33.35387 
L 196.12868 33.117299 
L 196.399048 33.876628 
L 196.669417 35.539245 
L 197.210155 41.046713 
L 199.102737 64.785836 
L 199.643475 67.557872 
L 199.913844 67.839184 
L 200.184213 67.404114 
L 200.454582 66.317475 
L 200.995319 62.616235 
L 202.617533 49.308058 
L 203.15827 46.963929 
L 203.699008 45.912529 
L 204.239746 45.656561 
L 204.780483 45.584757 
L 205.321221 45.21233 
L 205.861959 44.310572 
L 206.402697 42.906193 
L 207.754541 38.372062 
L 208.836017 34.271556 
L 210.187861 28.702194 
L 210.45823 28.068775 
L 210.728599 27.87691 
L 210.998968 28.278514 
L 211.269336 29.425455 
L 211.539705 31.460041 
L 212.080443 38.667404 
L 212.621181 50.599012 
L 213.161918 67.520396 
L 213.973025 101.79617 
L 215.054501 159.746768 
L 216.406345 233.499188 
L 217.217452 267.268657 
L 217.758189 283.317287 
L 218.298927 294.454571 
L 218.839665 301.585187 
L 219.380403 305.833332 
L 219.92114 308.235557 
L 220.461878 309.572323 
L 221.002616 310.339687 
L 221.813722 310.975071 
L 222.624829 311.30294 
L 223.706304 311.488101 
L 225.328518 311.489992 
L 226.409993 311.317754 
L 227.491469 310.92726 
L 230.195157 309.701985 
L 231.817371 309.11227 
L 233.169215 308.528038 
L 233.709953 308.493114 
L 234.25069 308.660982 
L 235.061797 309.256752 
L 236.954379 310.917424 
L 237.765486 311.291797 
L 238.846961 311.498482 
L 239.387699 311.534179 
L 239.387699 311.534179 
" clip-path="url(#pcc40421154)" style="fill: none; stroke: #57dbaa; stroke-width: 1.75; stroke-linecap: round"/>
   </g>
   <g id="line2d_29">
    <path d="M 210.142003 311.154075 
L 210.495646 310.802043 
L 210.849289 310.194907 
L 211.202932 309.187947 
L 211.556575 307.581934 
L 211.910218 305.118813 
L 212.263861 301.486295 
L 212.794325 293.078623 
L 213.324789 280.10446 
L 213.855254 261.771448 
L 214.562539 229.088582 
L 217.214861 90.945021 
L 217.922147 69.719913 
L 218.452611 59.184728 
L 218.983076 52.391542 
L 219.51354 48.583131 
L 219.867183 47.40448 
L 220.044004 47.168316 
L 220.220826 47.145058 
L 220.397647 47.317565 
L 220.75129 48.176319 
L 221.281755 50.429974 
L 222.519505 56.471018 
L 222.873148 57.392228 
L 223.049969 57.606883 
L 223.226791 57.641688 
L 223.403612 57.491059 
L 223.757255 56.637417 
L 224.110898 55.104014 
L 224.818184 50.564061 
L 226.055934 41.930448 
L 226.586398 39.386806 
L 227.116863 37.833273 
L 227.647327 37.073879 
L 228.885077 35.935889 
L 229.415541 34.734325 
L 229.946006 32.890148 
L 231.183756 27.304008 
L 232.067863 23.904778 
L 232.598328 22.56098 
L 233.128792 21.829733 
L 233.482435 21.692542 
L 233.836078 21.835657 
L 234.189721 22.255087 
L 234.720185 23.387582 
L 235.250649 25.116516 
L 235.781114 27.521594 
L 236.311578 30.91676 
L 236.842042 36.0058 
L 237.372507 43.937358 
L 237.902971 56.141519 
L 238.433436 73.910485 
L 239.140721 107.109981 
L 240.20165 171.87258 
L 241.4394 245.053503 
L 242.146686 274.695874 
L 242.67715 289.815928 
L 243.207615 299.671965 
L 243.738079 305.547442 
L 244.268543 308.751345 
L 244.799008 310.349773 
L 245.329472 311.079486 
L 245.329472 311.079486 
" clip-path="url(#pcc40421154)" style="fill: none; stroke: #75db57; stroke-width: 1.75; stroke-linecap: round"/>
   </g>
   <g id="line2d_30">
    <path d="M 136.629076 311.162599 
L 136.982924 310.816212 
L 137.336772 310.217084 
L 137.69062 309.220312 
L 138.044468 307.625208 
L 138.398316 305.169927 
L 138.752164 301.534696 
L 139.282936 293.073697 
L 139.813708 279.921759 
L 140.34448 261.182973 
L 141.052176 227.400089 
L 142.290644 153.460568 
L 143.352188 95.21862 
L 144.059884 67.399031 
L 144.590656 53.13734 
L 145.121428 43.843662 
L 145.6522 38.459745 
L 146.006048 36.484324 
L 146.359896 35.438689 
L 146.713744 35.056281 
L 147.067592 35.117915 
L 147.42144 35.457109 
L 148.129136 36.582903 
L 148.836832 38.186378 
L 149.367604 39.887289 
L 150.0753 43.05844 
L 151.667616 51.26014 
L 152.021464 52.17954 
L 152.198388 52.389342 
L 152.375312 52.415335 
L 152.552236 52.250293 
L 152.906084 51.343943 
L 153.259932 49.71853 
L 153.967627 44.931524 
L 154.852247 38.766087 
L 155.206095 37.215588 
L 155.559943 36.572064 
L 155.736867 36.638104 
L 155.913791 36.973561 
L 156.267639 38.437082 
L 156.798411 42.347246 
L 158.567651 58.30159 
L 158.921499 59.862072 
L 159.275347 60.573006 
L 159.452271 60.630119 
L 159.629195 60.510264 
L 159.983043 59.830192 
L 160.690739 57.460883 
L 161.398435 55.198926 
L 161.752283 54.59066 
L 161.929207 54.491311 
L 162.106131 54.55626 
L 162.283055 54.807459 
L 162.636903 55.965034 
L 162.990751 58.180297 
L 163.344599 61.710738 
L 163.875371 70.11601 
L 164.406143 83.130257 
L 164.936915 101.450299 
L 165.644611 133.993287 
L 168.298471 270.579895 
L 169.006167 290.526387 
L 169.536939 299.852526 
L 170.067711 305.519218 
L 170.598483 308.675603 
L 171.129255 310.287292 
L 171.660027 311.04168 
L 171.836951 311.182651 
L 171.836951 311.182651 
" clip-path="url(#pcc40421154)" style="fill: none; stroke: #dbd057; stroke-width: 1.75; stroke-linecap: round"/>
   </g>
   <g id="line2d_31">
    <path d="M 230.574167 311.529721 
L 232.439313 311.402071 
L 233.838172 311.114144 
L 234.770745 310.749486 
L 235.703317 310.191864 
L 236.63589 309.412529 
L 238.034749 307.858618 
L 240.832468 304.408589 
L 241.765041 303.539617 
L 242.697613 302.884418 
L 244.096472 302.176515 
L 245.961618 301.269609 
L 249.691909 299.149753 
L 250.624482 299.006884 
L 251.557055 299.17885 
L 252.489628 299.655425 
L 255.287346 301.561592 
L 255.753632 301.606388 
L 256.219919 301.438239 
L 256.686205 300.983307 
L 257.152491 300.153542 
L 257.618778 298.845191 
L 258.085064 296.938421 
L 258.551351 294.298653 
L 259.017637 290.780137 
L 259.483923 286.232131 
L 260.416496 273.475268 
L 261.349069 255.112656 
L 262.281642 230.88733 
L 263.680501 185.495083 
L 266.011933 105.124954 
L 266.944506 79.557431 
L 267.877078 60.713954 
L 268.343365 53.970717 
L 268.809651 48.93677 
L 269.275938 45.469379 
L 269.742224 43.37398 
L 270.20851 42.42057 
L 270.674797 42.360673 
L 271.141083 42.943549 
L 272.073656 45.107126 
L 273.006229 47.33856 
L 273.472515 48.145905 
L 273.938802 48.649295 
L 274.405088 48.821668 
L 274.871374 48.66799 
L 275.337661 48.21939 
L 276.270234 46.654899 
L 278.135379 42.840461 
L 278.601665 42.156001 
L 279.067952 41.694082 
L 279.534238 41.491267 
L 280.000525 41.56789 
L 280.466811 41.925709 
L 280.933097 42.546164 
L 281.86567 44.396381 
L 283.264529 47.560279 
L 283.730816 48.344779 
L 284.197102 48.84153 
L 284.663389 48.979898 
L 285.129675 48.71361 
L 285.595961 48.025896 
L 286.062248 46.932021 
L 286.994821 43.741273 
L 289.326252 34.466905 
L 289.792539 33.217732 
L 290.258825 32.339215 
L 290.725112 31.853814 
L 291.191398 31.756847 
L 291.657684 32.019347 
L 292.123971 32.592756 
L 293.056544 34.415986 
L 295.387976 39.877452 
L 296.320548 41.516303 
L 297.253121 42.734075 
L 298.65198 44.071705 
L 301.449699 46.545397 
L 302.848558 47.983223 
L 303.781131 49.219541 
L 304.713703 50.984928 
L 305.646276 53.654845 
L 306.578849 57.6654 
L 307.511422 63.512069 
L 308.443995 71.781941 
L 309.376567 83.158743 
L 310.30914 98.318775 
L 311.241713 117.686934 
L 312.174286 141.125347 
L 314.039431 195.773919 
L 315.43829 236.011345 
L 316.370863 258.809451 
L 317.303436 277.013337 
L 318.236009 290.401767 
L 319.168582 299.470154 
L 320.101154 305.127029 
L 320.567441 306.993426 
L 321.033727 308.377291 
L 321.500014 309.382447 
L 321.9663 310.097654 
L 322.898873 310.936632 
L 323.365159 311.164387 
L 323.365159 311.164387 
" clip-path="url(#pcc40421154)" style="fill: none; stroke: #db5f57; stroke-width: 1.75; stroke-linecap: round"/>
   </g>
   <g id="patch_3">
    <path d="M 42.28875 311.56 
L 42.28875 7.2 
" style="fill: none; stroke: #cccccc; stroke-width: 1.25; stroke-linejoin: miter; stroke-linecap: square"/>
   </g>
   <g id="patch_4">
    <path d="M 42.28875 311.56 
L 336.74975 311.56 
" style="fill: none; stroke: #cccccc; stroke-width: 1.25; stroke-linejoin: miter; stroke-linecap: square"/>
   </g>
  </g>
  <g id="legend_1">
   <g id="text_15">
    <!-- Euclidean_labels -->
    <g style="fill: #262626" transform="translate(355.67125 128.076172)scale(0.12 -0.12)">
     <defs>
      <path id="ArialMT-45" d="M 506 0 
L 506 4581 
L 3819 4581 
L 3819 4041 
L 1113 4041 
L 1113 2638 
L 3647 2638 
L 3647 2100 
L 1113 2100 
L 1113 541 
L 3925 541 
L 3925 0 
L 506 0 
z
" transform="scale(0.015625)"/>
      <path id="ArialMT-75" d="M 2597 0 
L 2597 488 
Q 2209 -75 1544 -75 
Q 1250 -75 995 37 
Q 741 150 617 320 
Q 494 491 444 738 
Q 409 903 409 1263 
L 409 3319 
L 972 3319 
L 972 1478 
Q 972 1038 1006 884 
Q 1059 663 1231 536 
Q 1403 409 1656 409 
Q 1909 409 2131 539 
Q 2353 669 2445 892 
Q 2538 1116 2538 1541 
L 2538 3319 
L 3100 3319 
L 3100 0 
L 2597 0 
z
" transform="scale(0.015625)"/>
      <path id="ArialMT-63" d="M 2588 1216 
L 3141 1144 
Q 3050 572 2676 248 
Q 2303 -75 1759 -75 
Q 1078 -75 664 370 
Q 250 816 250 1647 
Q 250 2184 428 2587 
Q 606 2991 970 3192 
Q 1334 3394 1763 3394 
Q 2303 3394 2647 3120 
Q 2991 2847 3088 2344 
L 2541 2259 
Q 2463 2594 2264 2762 
Q 2066 2931 1784 2931 
Q 1359 2931 1093 2626 
Q 828 2322 828 1663 
Q 828 994 1084 691 
Q 1341 388 1753 388 
Q 2084 388 2306 591 
Q 2528 794 2588 1216 
z
" transform="scale(0.015625)"/>
      <path id="ArialMT-6c" d="M 409 0 
L 409 4581 
L 972 4581 
L 972 0 
L 409 0 
z
" transform="scale(0.015625)"/>
      <path id="ArialMT-64" d="M 2575 0 
L 2575 419 
Q 2259 -75 1647 -75 
Q 1250 -75 917 144 
Q 584 363 401 755 
Q 219 1147 219 1656 
Q 219 2153 384 2558 
Q 550 2963 881 3178 
Q 1213 3394 1622 3394 
Q 1922 3394 2156 3267 
Q 2391 3141 2538 2938 
L 2538 4581 
L 3097 4581 
L 3097 0 
L 2575 0 
z
M 797 1656 
Q 797 1019 1065 703 
Q 1334 388 1700 388 
Q 2069 388 2326 689 
Q 2584 991 2584 1609 
Q 2584 2291 2321 2609 
Q 2059 2928 1675 2928 
Q 1300 2928 1048 2622 
Q 797 2316 797 1656 
z
" transform="scale(0.015625)"/>
      <path id="ArialMT-61" d="M 2588 409 
Q 2275 144 1986 34 
Q 1697 -75 1366 -75 
Q 819 -75 525 192 
Q 231 459 231 875 
Q 231 1119 342 1320 
Q 453 1522 633 1644 
Q 813 1766 1038 1828 
Q 1203 1872 1538 1913 
Q 2219 1994 2541 2106 
Q 2544 2222 2544 2253 
Q 2544 2597 2384 2738 
Q 2169 2928 1744 2928 
Q 1347 2928 1158 2789 
Q 969 2650 878 2297 
L 328 2372 
Q 403 2725 575 2942 
Q 747 3159 1072 3276 
Q 1397 3394 1825 3394 
Q 2250 3394 2515 3294 
Q 2781 3194 2906 3042 
Q 3031 2891 3081 2659 
Q 3109 2516 3109 2141 
L 3109 1391 
Q 3109 606 3145 398 
Q 3181 191 3288 0 
L 2700 0 
Q 2613 175 2588 409 
z
M 2541 1666 
Q 2234 1541 1622 1453 
Q 1275 1403 1131 1340 
Q 988 1278 909 1158 
Q 831 1038 831 891 
Q 831 666 1001 516 
Q 1172 366 1500 366 
Q 1825 366 2078 508 
Q 2331 650 2450 897 
Q 2541 1088 2541 1459 
L 2541 1666 
z
" transform="scale(0.015625)"/>
      <path id="ArialMT-5f" d="M -97 -1272 
L -97 -866 
L 3631 -866 
L 3631 -1272 
L -97 -1272 
z
" transform="scale(0.015625)"/>
      <path id="ArialMT-62" d="M 941 0 
L 419 0 
L 419 4581 
L 981 4581 
L 981 2947 
Q 1338 3394 1891 3394 
Q 2197 3394 2470 3270 
Q 2744 3147 2920 2923 
Q 3097 2700 3197 2384 
Q 3297 2069 3297 1709 
Q 3297 856 2875 390 
Q 2453 -75 1863 -75 
Q 1275 -75 941 416 
L 941 0 
z
M 934 1684 
Q 934 1088 1097 822 
Q 1363 388 1816 388 
Q 2184 388 2453 708 
Q 2722 1028 2722 1663 
Q 2722 2313 2464 2622 
Q 2206 2931 1841 2931 
Q 1472 2931 1203 2611 
Q 934 2291 934 1684 
z
" transform="scale(0.015625)"/>
     </defs>
     <use xlink:href="#ArialMT-45"/>
     <use xlink:href="#ArialMT-75" x="66.699219"/>
     <use xlink:href="#ArialMT-63" x="122.314453"/>
     <use xlink:href="#ArialMT-6c" x="172.314453"/>
     <use xlink:href="#ArialMT-69" x="194.53125"/>
     <use xlink:href="#ArialMT-64" x="216.748047"/>
     <use xlink:href="#ArialMT-65" x="272.363281"/>
     <use xlink:href="#ArialMT-61" x="327.978516"/>
     <use xlink:href="#ArialMT-6e" x="383.59375"/>
     <use xlink:href="#ArialMT-5f" x="439.208984"/>
     <use xlink:href="#ArialMT-6c" x="494.824219"/>
     <use xlink:href="#ArialMT-61" x="517.041016"/>
     <use xlink:href="#ArialMT-62" x="572.65625"/>
     <use xlink:href="#ArialMT-65" x="628.271484"/>
     <use xlink:href="#ArialMT-6c" x="683.886719"/>
     <use xlink:href="#ArialMT-73" x="706.103516"/>
    </g>
   </g>
   <g id="line2d_32">
    <path d="M 384.254531 139.118984 
L 394.254531 139.118984 
L 404.254531 139.118984 
" style="fill: none; stroke: #db5f57; stroke-width: 1.75; stroke-linecap: round"/>
   </g>
   <g id="text_16">
    <!-- 0 -->
    <g style="fill: #262626" transform="translate(412.254531 142.618984)scale(0.1 -0.1)">
     <use xlink:href="#ArialMT-30"/>
    </g>
   </g>
   <g id="line2d_33">
    <path d="M 384.254531 153.264297 
L 394.254531 153.264297 
L 404.254531 153.264297 
" style="fill: none; stroke: #dbd057; stroke-width: 1.75; stroke-linecap: round"/>
   </g>
   <g id="text_17">
    <!-- 1 -->
    <g style="fill: #262626" transform="translate(412.254531 156.764297)scale(0.1 -0.1)">
     <use xlink:href="#ArialMT-31"/>
    </g>
   </g>
   <g id="line2d_34">
    <path d="M 384.254531 167.409609 
L 394.254531 167.409609 
L 404.254531 167.409609 
" style="fill: none; stroke: #75db57; stroke-width: 1.75; stroke-linecap: round"/>
   </g>
   <g id="text_18">
    <!-- 2 -->
    <g style="fill: #262626" transform="translate(412.254531 170.909609)scale(0.1 -0.1)">
     <use xlink:href="#ArialMT-32"/>
    </g>
   </g>
   <g id="line2d_35">
    <path d="M 384.254531 181.554922 
L 394.254531 181.554922 
L 404.254531 181.554922 
" style="fill: none; stroke: #57dbaa; stroke-width: 1.75; stroke-linecap: round"/>
   </g>
   <g id="text_19">
    <!-- 3 -->
    <g style="fill: #262626" transform="translate(412.254531 185.054922)scale(0.1 -0.1)">
     <defs>
      <path id="ArialMT-33" d="M 269 1209 
L 831 1284 
Q 928 806 1161 595 
Q 1394 384 1728 384 
Q 2125 384 2398 659 
Q 2672 934 2672 1341 
Q 2672 1728 2419 1979 
Q 2166 2231 1775 2231 
Q 1616 2231 1378 2169 
L 1441 2663 
Q 1497 2656 1531 2656 
Q 1891 2656 2178 2843 
Q 2466 3031 2466 3422 
Q 2466 3731 2256 3934 
Q 2047 4138 1716 4138 
Q 1388 4138 1169 3931 
Q 950 3725 888 3313 
L 325 3413 
Q 428 3978 793 4289 
Q 1159 4600 1703 4600 
Q 2078 4600 2393 4439 
Q 2709 4278 2876 4000 
Q 3044 3722 3044 3409 
Q 3044 3113 2884 2869 
Q 2725 2625 2413 2481 
Q 2819 2388 3044 2092 
Q 3269 1797 3269 1353 
Q 3269 753 2831 336 
Q 2394 -81 1725 -81 
Q 1122 -81 723 278 
Q 325 638 269 1209 
z
" transform="scale(0.015625)"/>
     </defs>
     <use xlink:href="#ArialMT-33"/>
    </g>
   </g>
   <g id="line2d_36">
    <path d="M 384.254531 195.700234 
L 394.254531 195.700234 
L 404.254531 195.700234 
" style="fill: none; stroke: #579bdb; stroke-width: 1.75; stroke-linecap: round"/>
   </g>
   <g id="text_20">
    <!-- 4 -->
    <g style="fill: #262626" transform="translate(412.254531 199.200234)scale(0.1 -0.1)">
     <use xlink:href="#ArialMT-34"/>
    </g>
   </g>
   <g id="line2d_37">
    <path d="M 384.254531 209.845547 
L 394.254531 209.845547 
L 404.254531 209.845547 
" style="fill: none; stroke: #8557db; stroke-width: 1.75; stroke-linecap: round"/>
   </g>
   <g id="text_21">
    <!-- 5 -->
    <g style="fill: #262626" transform="translate(412.254531 213.345547)scale(0.1 -0.1)">
     <defs>
      <path id="ArialMT-35" d="M 266 1200 
L 856 1250 
Q 922 819 1161 601 
Q 1400 384 1738 384 
Q 2144 384 2425 690 
Q 2706 997 2706 1503 
Q 2706 1984 2436 2262 
Q 2166 2541 1728 2541 
Q 1456 2541 1237 2417 
Q 1019 2294 894 2097 
L 366 2166 
L 809 4519 
L 3088 4519 
L 3088 3981 
L 1259 3981 
L 1013 2750 
Q 1425 3038 1878 3038 
Q 2478 3038 2890 2622 
Q 3303 2206 3303 1553 
Q 3303 931 2941 478 
Q 2500 -78 1738 -78 
Q 1113 -78 717 272 
Q 322 622 266 1200 
z
" transform="scale(0.015625)"/>
     </defs>
     <use xlink:href="#ArialMT-35"/>
    </g>
   </g>
   <g id="line2d_38">
    <path d="M 384.254531 223.990859 
L 394.254531 223.990859 
L 404.254531 223.990859 
" style="fill: none; stroke: #db57c0; stroke-width: 1.75; stroke-linecap: round"/>
   </g>
   <g id="text_22">
    <!-- 6 -->
    <g style="fill: #262626" transform="translate(412.254531 227.490859)scale(0.1 -0.1)">
     <use xlink:href="#ArialMT-36"/>
    </g>
   </g>
  </g>
 </g>
 <defs>
  <clipPath id="pcc40421154">
   <rect x="42.28875" y="7.2" width="294.461" height="304.36"/>
  </clipPath>
 </defs>
</svg>
